<?xml version="1.0" standalone="no"?>
<svg id="Vector" width="177" height="250" viewBox="0 0 177 250" fill="none" xmlns="http://www.w3.org/2000/svg" style="max-width: 100%; max-height: 100%;">
<path d="M143.838 173.018C125.637 203.971 103.353 231.872 88.0758 248.446C73.7703 229.554 52.6627 198.893 34.9233 167.088C25.9038 150.917 17.7645 134.467 11.8327 119.13C5.89504 103.778 2.19694 89.6103 1.99986 77.983C1.57741 53.0584 11.7957 34.1121 27.4401 21.2996C43.1093 8.46669 64.2642 1.75767 85.6979 1.4565C107.13 1.15535 128.756 7.26264 145.362 19.9535C161.946 32.627 173.568 51.8963 175.001 78.0547C176.584 106.944 162.386 141.475 143.838 173.018ZM113 87C113 100.255 102.255 111 89 111C75.7452 111 65 100.255 65 87C65 73.7452 75.7452 63 89 63C102.255 63 113 73.7452 113 87ZM89 113C103.359 113 115 101.359 115 87C115 72.6406 103.359 61 89 61C74.6406 61 63 72.6406 63 87C63 101.359 74.6406 113 89 113Z" stroke="white" stroke-width="2" stroke-dasharray="0,0,0,960.5774536132812"><animate attributeType="XML" attributeName="stroke-dasharray" repeatCount="1" dur="4.166666666666667s" values="0,0,0,960.5774536132812; 
          0,480.2887268066406,480.2887268066406,0; 
          960.5774536132812,0,0,0" keyTimes="0; 0.5; 1" fill="freeze"></animate></path>
</svg>